<?xml version="1.0" encoding="UTF-8" standalone="no"?>
<!-- Created with Inkscape (http://www.inkscape.org/) -->

<svg
   width="64.094513mm"
   height="64.094513mm"
   viewBox="0 0 64.094513 64.094513"
   version="1.1"
   id="svg39105"
   inkscape:version="1.1.1 (3bf5ae0d25, 2021-09-20)"
   sodipodi:docname="logo.svg"
   xmlns:inkscape="http://www.inkscape.org/namespaces/inkscape"
   xmlns:sodipodi="http://sodipodi.sourceforge.net/DTD/sodipodi-0.dtd"
   xmlns="http://www.w3.org/2000/svg"
   xmlns:svg="http://www.w3.org/2000/svg">
  <sodipodi:namedview
     id="namedview39107"
     pagecolor="#ffffff"
     bordercolor="#666666"
     borderopacity="1.0"
     inkscape:pageshadow="2"
     inkscape:pageopacity="0.0"
     inkscape:pagecheckerboard="0"
     inkscape:document-units="mm"
     showgrid="false"
     fit-margin-top="1"
     fit-margin-left="1"
     fit-margin-right="1"
     fit-margin-bottom="1"
     inkscape:zoom="0.74118967"
     inkscape:cx="-24.959873"
     inkscape:cy="95.117353"
     inkscape:window-width="1920"
     inkscape:window-height="1017"
     inkscape:window-x="-8"
     inkscape:window-y="-8"
     inkscape:window-maximized="1"
     inkscape:current-layer="layer1" />
  <defs
     id="defs39102">
    <inkscape:path-effect
       effect="spiro"
       id="path-effect32898"
       is_visible="true"
       lpeversion="1" />
    <inkscape:path-effect
       effect="skeletal"
       id="path-effect32900"
       is_visible="true"
       lpeversion="1"
       pattern="m 373.46378,190.59427 c 1.41487,1.69748 1.0371,4.1118 -0.84327,5.38908 -1.88035,1.27729 -4.55477,0.93625 -5.96965,-0.76123 -1.41489,-1.6975 -1.03711,-4.11181 0.84324,-5.3891 1.88037,-1.27729 4.55478,-0.93625 5.96968,0.76125 z"
       copytype="single_stretched"
       prop_scale="0.797"
       scale_y_rel="false"
       spacing="0.1"
       normal_offset="0"
       tang_offset="0"
       prop_units="false"
       vertical_pattern="false"
       hide_knot="false"
       fuse_tolerance="0" />
    <inkscape:path-effect
       effect="spiro"
       id="path-effect36877"
       is_visible="true"
       lpeversion="1" />
    <inkscape:path-effect
       effect="skeletal"
       id="path-effect36881"
       is_visible="true"
       lpeversion="1"
       pattern="m 375.02792,197.11971 c 1.41487,1.69748 1.0371,4.1118 -0.84327,5.38908 -1.88035,1.27729 -4.55477,0.93625 -5.96965,-0.76123 -1.41489,-1.6975 -1.03711,-4.11181 0.84324,-5.3891 1.88037,-1.27729 4.55478,-0.93625 5.96968,0.76125 z"
       copytype="single_stretched"
       prop_scale="0.547"
       scale_y_rel="false"
       spacing="0.1"
       normal_offset="0"
       tang_offset="0"
       prop_units="false"
       vertical_pattern="false"
       hide_knot="false"
       fuse_tolerance="0" />
    <inkscape:path-effect
       effect="spiro"
       id="path-effect36339"
       is_visible="true"
       lpeversion="1" />
    <inkscape:path-effect
       effect="skeletal"
       id="path-effect36343"
       is_visible="true"
       lpeversion="1"
       pattern="m 372.11801,183.47453 c 1.41487,1.69748 1.0371,4.1118 -0.84327,5.38908 -1.88035,1.27729 -4.55477,0.93625 -5.96965,-0.76123 -1.41489,-1.6975 -1.03711,-4.11181 0.84324,-5.3891 1.88037,-1.27729 4.55478,-0.93625 5.96968,0.76125 z"
       copytype="single_stretched"
       prop_scale="0.587"
       scale_y_rel="false"
       spacing="0.1"
       normal_offset="0"
       tang_offset="0"
       prop_units="false"
       vertical_pattern="false"
       hide_knot="false"
       fuse_tolerance="0" />
  </defs>
  <g
     inkscape:label="Layer 1"
     inkscape:groupmode="layer"
     id="layer1"
     transform="translate(-111.81212,-123.59216)">
    <circle
       style="fill:#2f74a8;fill-opacity:1;stroke-width:0.451676"
       id="path1197-5-6-3-3"
       cx="143.85938"
       cy="155.63942"
       r="31.047256"
       inkscape:export-filename="C:\Users\alexa\Dropbox\projects\science\SpmSpectroscopy\media\logo.png"
       inkscape:export-xdpi="300"
       inkscape:export-ydpi="300" />
    <path
       style="fill:#fdfbba;fill-opacity:1;fill-rule:nonzero;stroke:#000000;stroke-width:0.0105833;stroke-linecap:butt;stroke-linejoin:miter;stroke-opacity:1"
       d="m 123.11578,164.29176 c -4.35841,2.36223 -6.36917,2.49626 -6.19394,1.59938 0.20789,-1.06412 2.59655,-3.19543 6.65074,-7.0885 0.50193,-0.48377 1.09415,-1.056 1.68936,-1.60815 0.95066,-0.88188 2.02908,-1.82659 3.25397,-2.71661 1.82454,-1.34809 4.11289,-2.53138 6.83941,-3.03014 1.64199,-0.26119 3.23109,-0.24153 4.71435,-0.0608 0,0 0,0 0,0 3.83617,0.45249 7.53431,1.92245 11.37048,2.37493 0,0 0,0 0,0 2.55129,0.30559 4.92774,0.15342 6.957,-0.57738 0.24152,-0.0833 0.49605,-0.18284 0.76065,-0.2902 2.35597,-0.95885 4.38441,-2.06956 6.10342,-3.10959 3.96286,-2.39758 5.79308,-3.93802 5.64397,-2.35145 -0.12637,1.34459 -2.19514,5.37738 -8.28668,9.29003 -0.38867,0.24964 -0.7889,0.49368 -1.20052,0.73109 -0.28978,0.16755 -0.60165,0.33896 -0.93768,0.50755 -2.90186,1.42203 -6.24793,1.99761 -9.62936,1.71115 -4.36549,-0.36856 -8.19442,-1.80397 -11.5367,-2.25479 -1.14256,-0.14837 -2.17967,-0.22828 -3.10305,-0.11446 -1.54996,0.12639 -3.19421,0.86704 -4.74729,1.71474 0,0 0,0 0,0 -1.58401,0.88672 -3.57957,2.33434 -5.08944,3.31928 -1.14539,0.75007 -2.23911,1.40133 -3.25869,1.95394 z"
       id="path32896"
       inkscape:path-effect="#path-effect32898;#path-effect32900"
       inkscape:original-d="m 170.77369,146.92466 c -3.35398,2.17893 -7.86933,2.84615 -10.48564,8.24996 -1.85925,3.84014 -0.23575,-0.16168 -0.84922,0.39879 -0.61346,0.56047 -5.47468,0.63503 -8.29324,1.14359 -2.81856,0.50855 -6.57496,-4.38054 -11.45367,-2.31408 -3.59734,1.52371 -2.02337,0.32841 -3.90859,-0.0267 -1.88522,-0.35504 -8.32354,4.56208 -10.80992,6.19387 -2.48636,1.63181 -9.18324,2.899 -8.0147,5.63555"
       inkscape:linked-fill="path36308"
       sodipodi:nodetypes="cssssssc" />
    <path
       style="fill:#ffffff;fill-opacity:1;fill-rule:nonzero;stroke:#000000;stroke-width:0.0105833;stroke-linecap:butt;stroke-linejoin:miter;stroke-opacity:1"
       d="m 140.61213,162.02299 c -6.50272,-4.30412 -1.85397,-3.2217 1.19907,-2.24857 0,0 0,0 0,0 0.98086,0.3088 2.24687,0.7045 3.59843,1.05785 2.87554,0.75179 6.06838,1.29985 9.30819,1.03281 1.5237,-0.10292 3.02507,-0.37702 4.46982,-0.80943 0,0 0,0 0,0 0.60037,-0.25821 1.1835,-0.54092 1.74878,-0.84529 3.37141,-1.78251 5.83627,-4.11052 7.66208,-6.09084 2.09101,-2.26796 3.00261,-3.53901 3.20992,-2.50643 0.17814,0.88726 -0.41339,3.80793 -3.46914,7.47676 -1.41331,1.69686 -3.2168,3.31038 -5.39251,4.63591 -0.72724,0.43486 -1.48526,0.83684 -2.27008,1.20163 0,0 0,0 0,0 -1.83518,0.62404 -3.75545,1.00184 -5.69139,1.11995 -6.03414,0.29422 -11.18847,-1.92523 -14.28405,-3.96568 -0.0299,-0.0196 -0.0596,-0.0391 -0.0891,-0.0587 z"
       id="path32896-4"
       inkscape:path-effect="#path-effect36877;#path-effect36881"
       inkscape:original-d="m 171.6239,151.30827 c -3.35399,2.17893 -7.06615,5.25571 -9.68246,10.65952 -1.85925,3.84014 -2.00937,1.02349 -2.00937,1.02349 2.77457,-1.76948 4.41559,0.45651 -5.0805,0.9651 -2.85997,0.15317 -8.71679,-5.09448 -13.5955,-3.02802 -3.59734,1.52371 -1.75564,-1.63493 -3.64086,-1.99004"
       inkscape:linked-fill="path36308"
       sodipodi:nodetypes="cssssc" />
    <path
       style="fill:#ffffff;fill-opacity:1;fill-rule:nonzero;stroke:#000000;stroke-width:0.0105833;stroke-linecap:butt;stroke-linejoin:miter;stroke-opacity:1"
       d="m 119.83131,159.94405 c -1.94844,2.55018 -2.8531,3.80357 -3.14798,2.78702 -0.2615,-0.90152 0.14928,-3.84141 2.68048,-7.93558 0.68086,-1.10128 1.48287,-2.20902 2.41092,-3.29106 1.41804,-1.66438 3.1617,-3.26773 5.27387,-4.5331 2.08642,-1.25356 4.47543,-2.05149 6.9706,-2.18919 1.70389,-0.0717 3.28227,0.15478 4.67317,0.46663 3.22685,0.70375 5.91728,1.83577 7.90351,3.00109 3.19903,1.87687 3.63999,3.09413 2.8743,3.22243 -0.91481,0.15329 -3.48188,-0.74066 -7.72841,-1.56733 -1.1896,-0.23157 -2.43618,-0.43422 -3.74189,-0.58709 -1.27164,-0.14038 -2.53299,-0.24421 -3.67938,-0.12187 -1.70078,0.14872 -3.41545,0.77579 -5.01834,1.66166 -1.65711,0.91973 -3.16739,2.17361 -4.53574,3.46751 -2.08022,1.98201 -3.65423,3.94242 -4.93511,5.61888 z"
       id="path32896-2"
       inkscape:path-effect="#path-effect36339;#path-effect36343"
       inkscape:original-d="m 149.79982,151.29287 c -2.81856,0.50855 -6.57496,-6.07615 -11.45367,-4.00969 -3.59734,1.52371 -2.2911,0.0607 -4.17632,-0.29443 -1.88522,-0.35504 -6.71717,1.8848 -10.89916,5.92614 -2.13861,2.06668 -7.53542,7.38466 -6.36688,10.12121"
       inkscape:linked-fill="path36308"
       sodipodi:nodetypes="csssc" />
  </g>
</svg>
